# xmcd CD database file
#
# Track frame offsets:
#	182
#	12020
#	23870
#	34970
#	47382
#	59445
#	71420
#	84732
#	96820
#	107720
#	120020
#	133257
#	145245
#	157432
#
# Disc length: 2213 seconds
#
# Revision: 3
# Processed by: cddbd v1.5.2PL0 Copyright (c) Steve Scherf et al.
# Submitted via: CDex 1.50
#
DISCID=bb08a30e
DTITLE=The Platters - Double Goldies - CD1
DYEAR=1900
DGENRE=
TTITLE0=Only You
TTITLE1=The Great Pretender
TTITLE2=The Magic Touch
TTITLE3=My Prayer
TTITLE4=Heaven On Earth
TTITLE5=You'll Never Never Know
TTITLE6=I'm Sorry
TTITLE7=Smoke Get In Your Eyes
TTITLE8=Red Sails In The Sunset
TTITLE9=I Love You 1000 Times
TTITLE10=I'll Be Home
TTITLE11=With This Ring
TTITLE12=Washed Ashore
TTITLE13=Sweet, Sweet Lovin'
EXTD=
EXTT0=
EXTT1=
EXTT2=
EXTT3=
EXTT4=
EXTT5=
EXTT6=
EXTT7=
EXTT8=
EXTT9=
EXTT10=
EXTT11=
EXTT12=
EXTT13=
PLAYORDER=
